<?xml version="1.0" encoding="UTF-8" standalone="no"?>
<!-- Created with Inkscape (http://www.inkscape.org/) -->

<svg
   version="1.1"
   id="svg1"
   width="512"
   height="512"
   viewBox="0 0 512 512"
   sodipodi:docname="logo.svg"
   xml:space="preserve"
   inkscape:version="1.4 (e7c3feb100, 2024-10-09)"
   xmlns:inkscape="http://www.inkscape.org/namespaces/inkscape"
   xmlns:sodipodi="http://sodipodi.sourceforge.net/DTD/sodipodi-0.dtd"
   xmlns="http://www.w3.org/2000/svg"
   xmlns:svg="http://www.w3.org/2000/svg"><defs
     id="defs1" /><sodipodi:namedview
     id="namedview1"
     pagecolor="#505050"
     bordercolor="#eeeeee"
     borderopacity="1"
     inkscape:showpageshadow="0"
     inkscape:pageopacity="0"
     inkscape:pagecheckerboard="0"
     inkscape:deskcolor="#505050"
     inkscape:zoom="0.56416625"
     inkscape:cx="138.25712"
     inkscape:cy="237.51864"
     inkscape:window-width="1440"
     inkscape:window-height="755"
     inkscape:window-x="1288"
     inkscape:window-y="150"
     inkscape:window-maximized="0"
     inkscape:current-layer="g1" /><g
     inkscape:groupmode="layer"
     inkscape:label="Image"
     id="g1"><path
       style="display:inline;fill:#6f9d17"
       d="m 292.79571,480.99368 c -0.0206,-0.42343 1.16766,-2.67343 2.64069,-5 4.32684,-6.83402 10.85371,-21.50615 14.11509,-31.73013 3.94217,-12.35815 5.87872,-21.95655 7.1624,-35.5 1.62881,-17.18473 1.48264,-18.97783 -1.85111,-22.70895 l -2.89538,-3.2405 -10.35462,2.31927 c -18.40128,4.12158 -35.79629,11.46259 -51.82171,21.8697 -10.18134,6.61189 -14.53031,10.1176 -26.37452,21.26048 -9.4068,8.8498 -8.92003,7.6868 2.72055,-6.5 10.55108,-12.859 31.48789,-28.89297 49.61664,-37.99778 9.51053,-4.77647 25.20754,-10.51772 34.31322,-12.55021 l 5.80879,-1.29658 -0.6709,-4.07772 c -1.20947,-7.35112 -5.407,-22.51992 -7.98635,-28.86065 -1.39098,-3.41938 -3.41841,-9.78575 -4.50541,-14.14748 -2.42457,-9.729 -5.25661,-14.70732 -11.9035,-20.92471 -6.04765,-5.65687 -12.19324,-8.5976 -19.55535,-9.35743 l -5.3538,-0.55256 2.23629,-3.61744 c 1.22996,-1.98959 3.00168,-5.66726 3.93716,-8.17259 4.26916,-11.43337 18.2858,-17.93408 29.00866,-13.45378 1.96274,0.82008 3.76036,1.15758 3.99471,0.75 0.23434,-0.40759 0.74819,-2.95995 1.14189,-5.67192 3.53535,-24.35334 20.67951,-50.22036 43.22966,-65.22472 7.72345,-5.139 20.17826,-11.2547 23.0482,-11.31738 1.70919,-0.0373 8.49662,13.78715 11.52454,23.47295 5.48279,17.53844 5.97233,36.33621 1.41687,54.40582 l -2.33235,9.25149 3.45224,-0.64764 c 15.12896,-2.83821 41.00234,-13.69035 55.3605,-23.22 15.06673,-9.99992 31.00219,-24.84678 40.5605,-37.78967 2.86378,-3.87785 2.90384,-2.38103 0.28076,10.49068 -10.64364,52.22923 -49.30777,98.4942 -98.17514,117.47504 -6.42029,2.49373 -14.00014,5.07117 -16.84413,5.72765 -4.70716,1.08654 -5.52725,1.71835 -9.14468,7.04526 -9.30052,13.69562 -15.97586,29.68866 -21.81338,52.26137 -7.81639,30.22469 -17.59109,48.11956 -40.42097,74 -1.94068,2.2 -3.54541,3.65356 -3.56606,3.23013 z M 144.96274,384.055 c -6.90678,-14.15448 -10.39279,-23.96535 -14.13876,-39.79145 -3.66272,-15.47437 -4.27712,-23.15291 -4.48085,-56 -0.18249,-29.42302 -0.41394,-33.4941 -2.44468,-43 -2.84835,-13.33315 -5.98455,-24 -7.05632,-24 -1.70008,0 -17.884613,-11.59693 -26.636668,-19.08633 -30.54581,-26.13901 -51.468873,-62.04738 -60.618494,-104.034055 -2.004322,-9.19764 -2.26236,-13.16954 -2.265979,-34.879612 -0.0022,-13.475 0.444924,-26.261883 0.993711,-28.415295 l 0.997793,-3.915295 2.842573,7.415295 c 12.010838,31.332147 36.110598,62.375402 63.791471,82.170732 8.649433,6.18544 21.743483,14.17238 22.269803,13.58385 0.16689,-0.18661 0.7965,-5.96429 1.39913,-12.83929 2.24762,-25.641435 10.06062,-45.647025 25.08586,-64.233598 9.04154,-11.184596 12.40304,-14.107738 15.20675,-13.223703 1.29255,0.407554 7.30009,5.742952 13.35009,11.856441 12.4549,12.585605 19.28036,22.750145 25.49699,37.970335 6.09414,14.920315 7.50301,23.159975 7.50301,43.880785 v 17.75027 l 4.0685,-2.7e-4 c 10.08437,-6.5e-4 20.33845,5.9801 24.61555,14.35718 1.17363,2.29865 2.47845,7.48092 2.93144,11.64256 0.449,4.125 1.12274,8.56435 1.4972,9.86522 0.67645,2.34998 0.64226,2.36074 -5.30806,1.67013 -17.01809,-1.97515 -35.30633,7.60968 -43.36369,22.72683 -1.82812,3.4299 -5.34294,8.71155 -7.81071,11.737 -6.52232,7.99626 -22.13023,32.87824 -22.13023,35.2798 0,0.32272 3.80161,2.88306 8.44804,5.68963 15.23568,9.20279 31.17979,22.63884 44.53724,37.53139 6.90525,7.69884 18.53256,25.4097 24.4531,37.24727 4.12865,8.25486 11.57543,26.36003 11.553,28.08851 -0.005,0.36532 -2.28975,-3.83578 -5.07779,-9.33578 -16.23654,-32.03006 -42.10523,-59.2713 -73.05964,-76.93609 -10.87628,-6.20679 -13.65135,-6.56258 -17.64307,-2.26204 -2.26402,2.43917 -6.23355,16.14624 -8.8901,30.69813 -2.11294,11.57415 -2.38852,44.9066 -0.45472,55 0.68494,3.575 1.47563,7.85 1.75709,9.5 0.28146,1.65 1.13805,5.45584 1.90353,8.45743 0.76549,3.00159 1.24148,5.60774 1.05777,5.79145 -0.18371,0.18371 -2.15466,-3.39714 -4.37988,-7.95743 z M 321.10145,149.51355 c -1.04034,-6.34132 -0.78784,-17.98042 0.4905,-22.6102 1.22383,-4.43234 1.15638,-4.47356 -11.48909,-7.02003 -8.87554,-1.78731 -11.90624,-1.30226 -16.03658,2.56656 l -2.19189,2.05311 -2.05438,-3.36972 c -2.46342,-4.04068 -2.47359,-4.19977 -0.5302,-8.29516 1.50849,-3.17891 1.47773,-3.28486 -2.03485,-7.00929 -6.44294,-6.831495 -10.29819,-17.776535 -8.89541,-25.253995 0.55644,-2.96606 0.97057,-3.31127 3.9724,-3.31127 4.72759,0 13.71773,3.57613 18.86242,7.50316 l 4.36744,3.33374 1.18002,-4.66845 c 1.63243,-6.45824 1.40159,-19.50182 -0.47006,-26.56076 -0.85927,-3.24077 -1.38576,-6.068864 -1.16997,-6.284653 0.88218,-0.882184 10.41584,10.748478 13.40016,16.347633 5.49173,10.30355 7.65988,24.56944 5.28852,34.797205 -0.79009,3.40771 -0.55837,4.63226 1.64144,8.67403 1.40878,2.58839 5.79642,8.06958 9.75031,12.18044 5.78132,6.01083 13.57594,17.46782 13.57594,19.95472 0,0.27342 -3.2625,-2.73508 -7.25,-6.68555 -7.69104,-7.61962 -13.37966,-11.14376 -15.34937,-9.50905 -2.14917,1.78365 -3.87299,10.38577 -3.84106,19.16753 0.0175,4.8125 -0.0737,8.75 -0.20261,8.75 -0.12893,0 -0.58509,-2.1375 -1.01368,-4.75 z"
       id="path4" /><path
       style="display:none;fill:#080808"
       d="m 242.44023,455.05373 c -2.75154,-0.2896 -4.1644,-0.8846 -3.90231,-1.64338 0.28855,-0.8354 3.07817,-1.08796 9.37248,-0.84852 18.38544,0.69939 42.51123,-3.07761 60.34297,-9.44698 5.225,-1.86633 9.64239,-3.39346 9.81642,-3.39362 0.17403,-1.7e-4 0.17403,1.2372 0,2.7497 -0.28479,2.47507 -1.11622,3.01806 -8.31642,5.4313 -15.13888,5.07399 -26.57292,6.90007 -45.5,7.26659 -9.625,0.18638 -19.44092,0.13459 -21.81314,-0.11509 z m -21.18686,-3.9656 c -11.21398,-2.95859 -21.77776,-6.76146 -31.75,-11.42975 -5.6375,-2.63907 -10.25,-5.02542 -10.25,-5.30301 0,-0.27759 3.7125,1.23319 8.25,3.35729 11.24686,5.2649 22.20675,8.85093 35.01424,11.45653 5.92034,1.20446 10.45784,2.49633 10.08333,2.87083 -1.02101,1.02101 -5.19763,0.67065 -11.34757,-0.95189 z m 119.34854,-19.49027 c 0.70421,-3.66244 2.07241,-5.04867 11.72234,-11.87693 13.17115,-9.31986 35.50703,-33.81498 40.67561,-44.60777 0.94156,-1.96612 3.14265,-3.91152 5.99181,-5.29575 2.47694,-1.20339 4.64832,-2.04319 4.82529,-1.86622 0.52581,0.52581 -10.09159,17.30239 -15.2108,24.03462 -10.59662,13.93555 -27.74897,29.67483 -42.75318,39.23102 l -5.90038,3.75796 z M 109.74532,360.47093 C 97.91898,335.50202 92.333199,308.24955 93.582817,281.61566 c 0.547399,-11.66705 4.005987,-33.40539 5.592152,-35.14848 0.37724,-0.41456 1.438941,-0.18956 2.359321,0.5 1.56028,1.16897 1.54475,1.7609 -0.22962,8.75375 -3.363649,13.25626 -4.475237,23.13857 -4.443064,39.5 0.04755,24.18188 4.599034,45.55008 13.898424,65.25 2.40157,5.0875 4.14149,9.25 3.86649,9.25 -0.275,0 -2.47154,-4.1625 -4.8812,-9.25 z m 85.41306,-12.70407 c -8.47346,-1.78771 -25.27874,-7.99925 -27.34465,-10.10709 -0.5832,-0.59503 1.41464,-0.084 4.43964,1.13552 8.80782,3.55099 17.87588,5.87831 26.94107,6.91443 5.10145,0.58308 9.04372,1.56743 9.96429,2.488 1.36428,1.36428 1.16175,1.51587 -1.94108,1.45285 -1.90535,-0.0387 -7.33203,-0.88637 -12.05927,-1.88371 z m 25.34499,0.84558 c -1.89368,-1.95656 -1.51064,-2.89151 1.18462,-2.89151 8.57794,0 29.76275,-6.93194 39.93547,-13.06739 6.31894,-3.81113 13.62991,-5.3775 13.62991,-2.92019 0,1.40069 -9.94869,7.63198 -18.47316,11.57053 -12.86861,5.94566 -33.56109,10.1145 -36.27684,7.30856 z M 161.6945,334.16576 c -1.86403,-1.49339 -1.85176,-1.51185 0.30887,-0.46481 1.2375,0.59969 2.25,1.29951 2.25,1.55516 0,0.76522 -0.51861,0.54424 -2.55887,-1.09035 z m 136.24958,-32.16681 c -1.54511,-0.23227 -2.64876,-0.72734 -2.45257,-1.10016 6.04276,-11.48286 11.1194,-23.50121 12.74735,-30.17786 14.96716,-61.38438 -30.56182,-121.68848 -92.23549,-122.16786 -5.3625,-0.0417 -9.75,-0.47097 -9.75,-0.95397 0,-2.74213 26.81941,0.44502 39.5,4.69408 27.12635,9.08959 50.12124,29.67216 61.71425,55.24001 9.64954,21.28159 11.24113,48.95982 4.1145,71.55225 -2.18552,6.9284 -9.8583,23.94462 -10.58991,23.48566 -0.13136,-0.0824 -1.50302,-0.33988 -3.04813,-0.57215 z m 118.98831,-16.11788 c -1.71911,-35.02903 -11.99625,-64.45549 -31.94743,-91.47484 -12.29974,-16.65721 -32.0268,-34.27841 -48.39561,-43.22937 -9.62883,-5.26535 -11.5852,-6.54005 -10.97459,-7.15066 0.29421,-0.29421 3.96269,1.31398 8.15218,3.57377 53.18825,28.68938 84.89912,78.19862 88.16297,137.64623 l 0.60532,11.02527 -2.49076,1.13487 -2.49076,1.13486 z m -295.51658,3.29703 c -1.67549,-3.6773 -1.35584,-4.46179 0.45585,-1.11876 0.84603,1.56112 1.35111,3.02552 1.12241,3.25422 -0.2287,0.2287 -0.93892,-0.73226 -1.57826,-2.13546 z m -4.48835,-12.14375 c -2.67183,-8.24362 -4.67409,-17.0189 -4.67409,-20.48509 0,-1.72948 0.2487,-1.86682 1.5,-0.82833 0.92039,0.76386 1.52002,3.033 1.55182,5.87244 0.0285,2.54516 1.10108,8.67756 2.38352,13.62756 1.28243,4.95 2.20557,9.14104 2.05142,9.31342 -0.15415,0.17238 -1.41985,-3.20262 -2.81267,-7.5 z m 61.82591,7.1951 c -0.55,-0.18347 -2.26947,-0.61454 -3.82104,-0.95793 -1.55157,-0.3434 -2.66056,-1.10579 -2.46442,-1.69421 0.22012,-0.66037 4.74459,-1.14829 11.82104,-1.27479 9.84765,-0.17605 12.66935,-0.62778 20.00859,-3.20319 25.22674,-8.85235 41.30115,-30.94997 41.37488,-56.8784 0.0315,-11.07306 -1.47757,-17.59149 -6.53098,-28.21078 -4.9533,-10.40894 -14.26873,-20.15704 -24.38807,-25.52085 -7.6406,-4.04994 -7.37752,-5.26021 0.29796,-1.37075 16.44737,8.33451 29.17182,23.871 33.65862,41.097 1.97694,7.58997 1.99132,23.32314 0.0284,31.04528 -4.46639,17.57063 -17.49708,33.61576 -33.48497,41.23117 -4.675,2.22681 -10.88465,4.53929 -13.79922,5.13884 -4.82905,0.99337 -20.29482,1.4012 -22.70078,0.59861 z m 24.89432,-145.6795 c -0.32702,-0.52915 -0.42389,-1.13279 -0.21524,-1.34144 1.17269,-1.17269 21.83231,-5.73292 32.21002,-7.10977 13.39375,-1.777 41.18009,-1.3824 44.36094,0.62997 1.41414,0.89466 1.0783,1.00796 -1.75004,0.59037 -20.21563,-2.9847 -45.96085,-0.71345 -66.75554,5.8892 -4.34952,1.38104 -7.49369,1.91841 -7.85014,1.34167 z"
       id="path2" /></g></svg>
