<?xml version='1.0' encoding='utf-8'?>
<svg xmlns="http://www.w3.org/2000/svg" enable-background="new 16.7527 15.2888 1395.2473 780.2873" version="1.1" viewBox="16.7527 15.2888 1395.2473 780.2873">
	<path d="m330.06 28.04c2.82-2.81 7.9-2.63 10.4 0.53 5.73 6.48 8.94 14.68 12.61 22.41 12.38 27.74 25.38 55.6 44.13 79.71 7.6 10.29 16.57 19.47 25.85 28.25 8.95 8.11 17.99 16.77 22.82 28.08 4.79 11.46 3.3 24.28 1.33 36.19-1.97 12.57-2.5 25.56 0.31 38.05 3.54 14.55 10.16 28.26 18.62 40.57 2.73 4.15 8.32 2.43 12.32 1.64 18.2-5.4 37.65-3.7 55.98 0.16 8.08 1.74 16.26 3.55 23.76 7.16 15.75 7.14 29.46 19.84 35.84 36.12 2.98 7.03 0.95 15.32 4.93 22.04 4.4 7.72 12.68 11.99 20.48 15.55 3.2 1.37 6.56 2.72 8.83 5.5-12.76 1.29-25.6-1.17-38.36 0.1-6.64 0.59-11.81 5.16-17.15 8.65-11.77 8.13-25.42 13.48-39.62 15.24-19.8 2.82-39.84-0.38-59.1-5.04-4.28-1.08-8.58-2.21-12.67-3.87 9.88-0.88 19.74 0.97 29.63 0.96 13.14-0.07 26.54 1.05 39.36-2.53 9.47-2.14 18.44-6.18 26.55-11.49 5.94-3.74 11.22-8.52 17.58-11.56 5.41-2.49 12.02 1.44 16.9-2.6-1.33-4.67-5.77-7.24-9.67-9.56-10.91-5.83-23.34-9.33-35.77-8.79-3.33-0.32-4.36 3.48-5.79 5.73-1.93 4.22-6.44 7.15-11.13 6.79-4.21-0.28-8.36-1.43-12.32-2.81-3.67-1.36-4.78-5.44-7.01-8.24-4.29-1.07-8.42 1.3-12.6 1.9-12.81 3.17-26.45-0.61-37.24-7.77-7.68-5.11-15.06-11.56-18.6-20.3-1.54-3.76-3.06-8.12-7.06-9.93-8.49-3.56-17.91-4.61-27.04-3.64-5.13 0.81-10.99 3.4-12.36 8.92-1.02 5.9 3.24 10.97 7.22 14.76 12.83 10.77 28.92 16.55 44.72 21.41 6.21 2.06 12.91 2.94 18.61 6.35 2.75 1.73 5.28 4.75 4.71 8.22-0.85 4.98-4.5 8.8-7.97 12.2-10.43 10.05-23.57 16.48-35.29 24.8-17.35 9.74-37.03 14.13-56.24 18.61-21.33 4.27-42.86 7.52-64.52 9.5-15.32 1.05-30.85 3.51-44.81 10.23-10.13 4.89-19.46 11.24-29.31 16.62-10.02 5.23-20.83 9.1-32.07 10.56-35.91 5.32-70.35 17.22-105.11 27.28-13.53 3.99-26.99 8.38-40.87 11.01-5.93 0.54-11.92 0.29-17.86 0.0099 0.5-1.6899 0.83-3.47 1.78-4.97 11.66-15.06 28.23-25.79 46.17-31.88 19.27-6.76 39.62-9.35 59.67-12.67 7.04-1.47 14.16-2.86 20.91-5.43 6.4-2.46 12.02-6.59 16.78-11.47 9.91-10.2 18.1-21.88 27.28-32.71 13.25-15.74 28.19-30.22 45.38-41.63 11.65-7.88 24.19-14.32 37.06-19.93 9.04-4.12 18.35-8.41 25.49-15.5 4.66-4.5 6.95-11.55 4.73-17.8-2.49-8.8-10.01-14.73-17-19.98-20.15-14.4-42.39-25.51-64.51-36.49-1.34-0.68-2.38-1.79-3.36-2.89 10.93-0.94 21.72 1.66 32.62 1.68 6.65 0.13 13.32 0.44 19.95-0.24 3.04-0.45 6.24-1.52 8.22-4.02 0.76-2.3 0.41-4.93-0.96-6.93-3.19-5.5-9.02-8.68-12.59-13.84 4.79 1.23 9.11 3.67 13.55 5.77 13.47 6.47 26.63 13.55 40.14 19.95 7.93 3.85 15.77 7.98 24.09 10.96 2.31 0.91 4.83 0.74 7.26 0.66-0.84-5.25-4.83-9.05-8.1-12.93-6.8-7.93-14.65-15.21-19.35-24.68-4.26-8.67-7.43-17.94-8.76-27.52-0.53-2.37-0.61-5.36-3.02-6.67-15.09-9.9-30.18-19.81-45.29-29.68-2.94-1.72-5.19-4.33-6.62-7.39-2.78-5.71-6.39-11.36-6.71-17.87 4.31-0.58 7.98 1.97 11.52 4 10.14 6.14 20.32 12.24 30.18 18.83 4.11 2.83 8.28 5.67 11.77 9.26 2.94 3.01 4.53 6.96 6.49 10.6 1.43-5.4 2.97-10.77 5.31-15.86-7.16-3.44-14.57-6.34-21.61-10.05-6.61-3.45-13.55-6.69-18.97-11.92-3.26-4.36-5.56-9.93-4.52-15.45 4.92-0.6 9.19 2.25 13.2 4.65 5.85 3.83 11.54 7.9 17.26 11.92 7.01 4.61 12.55 11.19 15.96 18.85 5.63-6.68 10-14.68 17.41-19.63 4.02-2.88 9.25-2.97 13.96-2.28 4.34 0.6 8.23 3.04 12.67 3.19 0.02-2.62-0.24-5.3-1.57-7.61-4.56-8.77-10.42-16.78-16.32-24.68-8.5-11.07-17.31-21.95-27.04-31.97-4.53-4.79-10.22-8.72-13.26-14.73-4.91-9.35-5.51-20.34-3.95-30.61 1.6699-8.6699 4.1399-17.81 10.75-24.09z"/>
	<path d="m299.15 73.16c3.31-0.3 6.8 0.03 9.54 2.08 7.66 5.2 13.99 12.06 20.4 18.68 11.48 12.7 22.26 26.16 31.28 40.74 2.85 4.98 6.19 10.09 6.43 16-2.78 0.58-5.55 0-7.91-1.56-18.63-10.47-36.57-23.16-49.79-40.17-7.59-10.01-13.37-23.07-9.95-35.77z"/>
	<path d="m292.52 114.51c1.65-3.31 5.86-1.69 8.4-0.44 8.35 4.24 15.54 10.38 22.85 16.17 8.29 6.51 14.64 15.16 19.59 24.4 1.82 3.47 3.32 7.21 3.39 11.19-4.15 1.49-7.85-1.48-11.34-3.29-12.12-7.19-24.39-14.53-34.5-24.46-6.23-5.96-9.85-14.98-8.39-23.57z"/>
	<path d="m99.07 155.11c5.33-0.33 9.25 3.74 13.46 6.34 18.6 12.79 38.41 24.14 59.92 31.24 4.71 1.45 9.76 2.8 14.67 1.47 2.53-3.83 0.27-8.23-1.45-11.88-4-7.1-10.93-11.76-16.6-17.4-1.39-1.15-1.73-2.94-2.05-4.61 2.02 0.03 4.15-0.14 6.05 0.74 6.79 2.8 12.98 6.82 19.17 10.74 14.19 9.31 27.86 19.38 41.46 29.53 11.25 9.36 21.22 20.13 31.2 30.81 6.79 7.83 14.35 15.41 18.59 25.02-2.49 1.41-5.11 2.54-7.68 3.79-0.36 2.6-0.56 5.22-0.74 7.84-7.76-0.69-15.03-3.77-22.57-5.54-3.73-1.16-7.73-1.57-11.18-3.5-42.92-25.78-85.81-51.64-128.78-77.34-3.76-2.05-4.96-6.41-6.79-9.97-2.55-5.61-5.7-11.11-6.68-17.28z"/>
	<path d="m283.34 201.61c4.95-0.47 9.15 2.41 13.07 5 13.62 9.44 25.87 20.74 37.19 32.81 3.64 4.07 7.81 8.29 8.73 13.92-4.42 0.62-8.29-1.84-12.12-3.58-12.19-6-24.43-13.32-32.11-24.86-5.1-7.61-11.99-14.38-14.76-23.29z"/>
	<path d="m248.21 307.27c8.66-4.6 19.07-4.82 28.47-2.7 14.66 4.22 27.7 12.75 39.27 22.5 1.52 1.16 2.63 2.73 3.18 4.57-5 0.27-9.83-1.24-14.73-1.94-17.18-3.87-34.11-9-50.35-15.85-2.31-0.93-4.33-2.39-6.24-3.94l0.4-2.64z"/>
	<path d="m246.14 331.35c2.5-1.43 5.18-2.62 8.08-2.84 13.88-1.74 27.57 2.54 40.14 8.03 3 1.44 6.46 2.28 8.89 4.67 1.08 2.48-1.55 4.64-3.66 5.4-5.1 1.62-10.59 1.11-15.82 0.57-10.44-1.53-20.74-4.34-30.45-8.47-3.06-1.53-7.35-3.28-7.18-7.36z"/>
	<path d="m227.69 350.72c13.03-0.41 26.32-4.08 39.17-0.25 6.72 1.91 13.81 3.44 19.65 7.46-0.09 0.71-0.28 2.13-0.38 2.85-8.44 2.79-17.45 1.76-26.11 0.78-11.29-1.23-23.19-2.54-33.08-8.6 0.19-0.56 0.56-1.68 0.75-2.24z"/>
	<path d="m157.75 368.88c8.85-2.5 18.04-3.71 27.17-4.57 15.69-0.14 31.5-0.97 47.07 1.32 8.59 0.68 17 2.64 25.48 4.11 0.11 0.49 0.33 1.48 0.43 1.97-11.75 5.47-24.55 8.2-37.11 11.13-3.59 1.08-8.26 0.55-10.55 4.1 2.38 3.45 6.66 5.52 7.88 9.72-5.12 2.06-10.73 1.7-16.13 1.89-21.69 0.24-43.39 0.02-65.06-0.76-4.49-0.53-9.43-0.21-13.32-2.86 0.51-1.73 1.27-3.48 2.98-4.34 10.2-6.41 22.68-6.38 33.86-10.01 1.83-0.39 3.05-1.77 3.98-3.29-3.59-1.43-7.51-2.24-10.71-4.53-0.82-2.47 2.3-3.21 4.03-3.88z"/>
	<path d="m164.78 408.03c11.71-1.01 23.49-0.84 35.23-0.82 4.97 0.16 10-0.17 14.88 0.97l-0.2 2.52c-7.45 5.48-16.66 7.63-25.3 10.51-21.69 6.07-43.78 11.42-66.34 12.66-7.58-0.19-14.93 2.4-22.52 1.81 4.3-6.04 10.49-10.43 16.33-14.88 14.27-8.91 31.5-11.14 47.92-12.77z"/>
	<path d="m173.35 433.18c4.64-0.34 9.77-1.85 14.13 0.38 1.51 3.08-2.1 5.16-4.09 6.81-12.08 8-25.52 13.65-38.82 19.28-18.44 7.45-37.06 14.65-56.44 19.33-9.03 2.12-17.94 4.78-27.11 6.25-3.23 0.55-6.54 0.32-9.64-0.74 0.01-2.09-0.27-4.35 1-6.16 3.95-6.74 9.06-12.87 15.14-17.79 9.34-6.92 20.36-11.11 31.37-14.58 24.21-7.19 49.34-10.86 74.46-12.78z"/>
	<path d="m1361.9 202.04c9.45-4.96 19.68-10.24 30.72-8.68 0.1901 5.42 0.67 11.32-2.51 16.05-7.02 11.78-15.72 22.82-26.52 31.35-15.55 10.37-31.23 20.58-46.22 31.76-3.58 2.85-7.61 5.49-9.6799 9.73 7.1899-0.05 13.71-3.6 20.43-5.79 7.66-2.51 15.17-6.24 23.38-6.51 0.4401 4.3-3.28 6.98-5.6 10.05-12.37 14.17-27.36 25.84-43.23 35.84-20.89 13.11-43.3 23.69-66.35 32.41-8.27 3.48-17.48 4.94-24.87 10.29-14.72 10.1-29.32 20.45-44.95 29.13-12.73 6.68-25.72 13.67-40 16.23-2.47 0.8-4.74-0.49-6.89-1.46-1.51-7.13 3.0601-13.36 6.77-18.97 10.83-15 25.85-26.14 39.26-38.67 2.8199-2.87 6.38-5.82 6.51-10.18-3.63-1.77-7.71-1.46-11.61-1.4-8.65 0.06-17.1 2.12-25.45 4.12-11.85 3.06-23.56 6.68-35.07 10.83-2.08 0.89-4.34 0.78-6.49 0.41 0.34-3.64 3.5699-5.68 6.3-7.56 16.21-10.58 34.63-17 51.35-26.66 25.94-14.77 50.62-31.63 74.85-49.04 1.42-1.08 3.14-1.54 4.87-1.94-2.64 6.15-7.84 10.59-12.16 15.52-10.55 11.54-22.83 21.37-33.22 33.04 6.67-4.26 12.41-9.76 18.46-14.83 27.71-24.33 54.53-49.79 84.17-71.79 7.9399-5.81 16.16-11.27 24.8-15.99 1.62-1.03 3.5399-1.25 5.4399-1.43-2.13 7.88-8.38 13.69-11.63 21.03-0.8099 1.68-0.65 3.56-0.7 5.36 8.01-1.35 14.59-6.46 21.35-10.6 11.3-7.52 22.47-15.29 34.49-21.65z"/>
	<path d="m910.58 305.71c10.36-4.25 21.77-5.63 32.9-4.64 11.19 1.48 22.69 3.28 32.59 9.07 8.39 4.72 14.71 12.58 18.62 21.29 4.2201 9.16 5.6801 19.26 9.4 28.6 1.88 4.69 4.9701 9.26 9.6901 11.44 7.64 3.81 16.45 2 24.58 1.26 25.5-2.49 50.66-7.64 75.56-13.58 5-1.18 9.95-2.76 15.1-3.18 1.25 6.42-3.1901 11.74-6.54 16.68-5.2 7.64-11.7 14.81-14.2 23.9-1.4401 3.84 0.27 8.4 3.71 10.58 3.67 2.38 7.83 4 11.27 6.78 10.68 8.35 18.18 20.14 23.36 32.53 3.73 9.5 6.0601 19.88 4.75 30.11-1.04 8.06-6.4399 14.75-7.4399 22.8-1.76 9.04-0.2301 18.21 0.4299 27.27-0.23 5.62 1.73 11.15 0.76 16.76-0.8199 4.84-1.72 9.98-0.1 14.76 3 8.64 8.04 16.36 12.88 24.06 20.67 30.79 44.73 59.12 68.75 87.32 2.5499 2.6299 1.6 6.7 0.4399 9.77-1.65 3.55-6.2899 2.39-9.39 2.13-9.0299-3.44-16.24-10.26-23.39-16.56-11.94-10.32-22-22.55-33.09-33.72 4.41 10.51 9.16 20.9 12.97 31.66 10.63 30.14 20.25 61.32 20.86 93.51-0.7001 7.68-1.1101 15.82-5.4401 22.49-2.39 3.18-5.74 6.36-10.04 5.98-3.4199-0.2599-7.6 0.79-10.25-1.93-6.5699-5.71-9.7599-14.07-12.85-21.96-8.9199-24.82-14.2-50.74-20.75-76.24-5.14-19.24-10.12-38.65-18.19-56.91-3.16-7.16-7.05-14.01-11.92-20.14-13.65-18.77-30.37-34.95-46.34-51.68-12.64-12.57-24.76-25.75-34.82-40.51-7.5499 4.44-16.15 6.8799-24.88 7.18-11.77 0.23-23.91 0.32-35.09-3.88-14.31-4.67-26.42-15.35-33.34-28.67-6.6901-12.34-9.71-26.41-10.28-40.36-0.17-1.58 0.67-2.97 1.29-4.36 4.2999 5.71 5.73 13 9.96 18.77 5.23 8.46 13.35 15.05 22.8 18.22 8.47 3.27 17.68 2.69 26.57 2.39 10.25-1.07 20.23-6.4 26.06-15.03 6.0399-8.68 8.6599-19.49 8.1899-29.99 0.46-10.82-2.37-21.56-7.0499-31.25-4.3301-8.79-11.12-16.97-20.53-20.44-3.75-1.07-8.12-2.72-11.75-0.45-4.03 1.96-4.5701 6.82-5.41 10.7-1.36 6.27-1.34 13.81-6.86 18.13-4.98 4.06-11.73 2.71-17.56 2.11-11.52-1.87-22.26-8.24-29.31-17.55-3.84-4.72-6.3101-10.35-9.87-15.25-1.37-2.43-4.34-1.42-6.33-0.54-7.4501 3.36-12.64 10.5-14.82 18.24-2.1799 8.11-0.28 17.12 4.77 23.8 3.46 4.5 7.96 8.06 11.5 12.5 7.67 9.27 12.71 20.45 15.92 31.98 2.5499 10.17 4.0499 20.56 6.2999 30.79 1.42 5.45 3.59 11.26 8.4401 14.58 5.7 3.74 12.72 4.37 18.82 7.22 1.47 0.73 2.47 2.62 1.66 4.2-1.77 4.62-5.4301 8.12-8.7101 11.67-14.06 13.52-31.38 23.12-49.17 30.8-13.44 5.53-27.59 10.07-42.22 10.56-5.8 0.13-11.61-0.76-17.05-2.76-7.3-2.36-14.69-4.5099-21.73-7.57-0.05-0.52-0.15-1.54-0.21-2.05 8.8099-3.93 17.07-8.94 25.16-14.18 10.06-6.2 19.99-12.61 29.9-19.05 5.1-3.48 10.55-6.49 15.33-10.43-7.62 1.27-14.26 5.44-21.3 8.34-20.28 8.95-40.22 18.91-61.46 25.42-5.25 1.74-10.9 2.3-16.35 1.28-1.0299-2.2-2.11-4.81-0.64-7.09 3.3601-6.09 10.65-8.35 14.71-13.85-7.36-0.4399-14.58 1.54-21.84 2.4301-26.73 4.4299-53.32 9.58-79.99 14.34-3.2 0.88-6.48 1.51-9.8099 1.42 0.22-2.65 0.95-5.4 3.12-7.13 8.14-7.16 18.24-11.5 28.01-15.94 20.45-9.05 41.81-15.77 62.86-23.23 21.8-7.89 43.51-16.07 64.82-25.21 4.4601-2.33 9.75-3.56 13.17-7.47-9.88 2.17-19.29 6.01-28.99 8.78-7.25 2.11-14.42 5.41-22.1 5.19 2.6699-7.73 9.26-13.19 15.89-17.53 10.04-6.81 21.67-10.51 32.7-15.33 8.4399-4.66 17.8-8.25 24.71-15.22 3.2201-3.06 4.9-7.99 3.2001-12.24-1.64-4.02-4.67-7.23-7.03-10.81-6.7-9.9-9.9401-22.41-7.39-34.23 0.66-4.22 2.15-8.33 2.28-12.63 0.12-2.43-2.0801-3.96-3.76-5.3-10.39-7.37-21.26-14.04-31.71-21.3-1.26-0.66-1.4801-2.09-1.92-3.28 6.48 1.09 13.09 0.59 19.58 1.63 5.2201 0.73 10.42-0.4 15.6-1.03 3.1699-0.44 6.6699-1.99 7.62-5.34 5.16-15.19 16.77-28.22 31.65-34.4z"/>
	<path d="m1229.5 375.21c9.23-1.25 18-5.52 27.45-4.93 0.66 4.9-2.16 9.2-4.8 13.04-7.5499 10.45-18.04 18.22-28.46 25.58-4.85 3.11-9.38 6.87-14.74 9.05-11.35 2.22-22.96 2.27-34.48 2.57-6.37 0.12-12.75 0.14-19.12-0.17-1.88-0.04-3.6801-0.57-5.37-1.31 14.95-11.22 30.54-21.67 46.73-31.05 10.28-5.68 20.96-11.33 32.79-12.78z"/>
	<path d="m1217.9 422.31c5.03-0.81 10.69-1.18 15.19 1.68 3.5 2.34 3.4399 7.55 1.49 10.9-2.95 4.65-7.4301 8.23-12.38 10.58-13.54 6.65-28.91 7.88-43.76 7.71-7.3199-0.72-15.63 0.18-21.64-4.88-1.7799-1.17-1.39-3.89 0.27-4.97 3.62-2.99 8.12-4.59 12.38-6.45 15.63-6.35 31.72-11.94 48.45-14.57z"/>
	<path d="m1204.9 462.34c4.49-0.79 9.09-0.7 13.64-0.55 5.5-0.04 9.23 5.23 10.29 10.14 0.9 5.17 0.61 11.07-2.77 15.34-2.51 3.16-6.96 2.59-10.52 3.07-14.02 1.55-28.08-0.07-42.07-0.96-5.61-1.19-12.22-0.71-16.44-5.25-1.9401-2.02-4.66-4.87-3.0701-7.86 1.65-1.5 3.76-2.38 5.85-3.1 14.75-4.66 29.76-8.64 45.09-10.83z"/>
	<path d="m1184.5 507.62c4.99-0.63 9.99-0.44 14.98 0.19 9.89 0.1 20.06 1.45 29.02 5.86 7.27 4.52 12.98 11.12 18.27 17.75 4.98 6.79 9.62 14.6 9.62 23.28-0.05 2.78-0.63 6.11-3.27 7.61-5.53 1.36-10.88-1.22-15.91-3.13-21.46-8.59-42.46-18.24-63.53-27.71-8.7101-3.71-16.99-8.58-24.2-14.72-2.13-1.55-3.04-4.15-2.09-6.63 12.28-2.01 24.7-2.27 37.11-2.5z"/>
	<path d="m1150.9 548.82c5.74-1.73 11.94-0.21 17.66 1.07 13.39 3.7 26.43 8.69 38.95 14.71 7.65 3.96 16.01 7.76 21.03 15.1 10.73 14.31 19.08 31.79 17.81 50.08 0.04 3.12-0.8099 6.46-3.23 8.59-3.22 1.15-5.6699-1.54-7.87-3.4-21.96-20.39-44.26-40.39-66.32-60.67-6.92-5.63-14.95-10.55-19.44-18.51-1.1299-2.21-1.5099-6.01 1.4101-6.97z"/>
</svg>